# xmcd
#
# Track frame offsets: 
#        150
#        20516
#        40570
#        58044
#        75452
#        95022
#        113883
#        133418
#        151829
#        171040
#        190039
#        208445
#        227620
#        245571
#        264020
#        284088
#
# Disc length: 4042 seconds
#
# Revision: 2
# Processed by: cddbd v1.5.2PL0 Copyright (c) Steve Scherf et al.
# Submitted via: ExactAudioCopyFreeDBPlugin 1.0
#
DISCID=db0fc810
DTITLE=รวมศิลปิน - มรอยปากกา ครูสลา คุณวุฒิ ชุดที่ 5
DYEAR=1900
DGENRE=Country
TTITLE0=เอิร์น เดอะสตาร์ - รอทำอย่างนั้นกับเธอ
TTITLE1=มนต์แคน แก่นคูณ - สร้างฝันด้วยกันบ่
TTITLE2=เอิ้นขวัญ วรัญญา - บ่กล้าบอกครู (แต่หนูกล้าบอกอ้าย)
TTITLE3=ศิริพร อำไพพงษ์ - แจ่วบองในกล่องคอมพ์
TTITLE4=ต่าย อรทัย - คนในความคิดฮอด
TTITLE5=ต่าย อรทัย - ตัวช่วยที่บ่ได้เชิญ
TTITLE6=เอิร์น เดอะสตาร์ - ไม่ใช่ที่ชาร์จแบต
TTITLE7=ก็อต and ต่าย - ขอบคุณเธอที่ให้ใจ
TTITLE8=แมนแคน แก่นคูณ - โรงงานปิดคิดฮออดน้อง
TTITLE9=มนต์แคน แก่นคูณ - ยังฮักคือเก่า
TTITLE10=ไหมไทย ใจตะวัน - คือเจ้าเท่านั้น
TTITLE11=ไหมไทย ใจตะวัน - เหนื่อยจังอยากฟังเสียง
TTITLE12=ศิริพร อำไพพงษ์ - ขอทำเพื่ออ้าย
TTITLE13=ก็อต จักรพันธ์ - คุณ OK ไหม
TTITLE14=ตั๊กแตน ชลดา - คนเหงาที่เข้าใจเธอ
TTITLE15=ไผ่ พงศธร - ขอเป็นผู้ช่วยเจ็บ
EXTD=
EXTT0=
EXTT1=
EXTT2=
EXTT3=
EXTT4=
EXTT5=
EXTT6=
EXTT7=
EXTT8=
EXTT9=
EXTT10=
EXTT11=
EXTT12=
EXTT13=
EXTT14=
EXTT15=
PLAYORDER=
